<?xml version="1.0" encoding="UTF-8" standalone="no"?>
<!-- Created with Inkscape (http://www.inkscape.org/) -->

<svg
   xmlns:dc="http://purl.org/dc/elements/1.1/"
   xmlns:cc="http://creativecommons.org/ns#"
   xmlns:rdf="http://www.w3.org/1999/02/22-rdf-syntax-ns#"
   xmlns:svg="http://www.w3.org/2000/svg"
   xmlns="http://www.w3.org/2000/svg"
   xmlns:sodipodi="http://sodipodi.sourceforge.net/DTD/sodipodi-0.dtd"
   xmlns:inkscape="http://www.inkscape.org/namespaces/inkscape"
   id="svg2"
   version="1.1"
   inkscape:version="0.91 r13725"
   width="720.53479"
   height="719.57959"
   viewBox="0 0 720.53479 719.57959"
   sodipodi:docname="INAF logo.svg">
  <metadata
     id="metadata8">
    <rdf:RDF>
      <cc:Work
         rdf:about="">
        <dc:format>image/svg+xml</dc:format>
        <dc:type
           rdf:resource="http://purl.org/dc/dcmitype/StillImage" />
        <dc:title></dc:title>
      </cc:Work>
    </rdf:RDF>
  </metadata>
  <defs
     id="defs6" />
  <sodipodi:namedview
     pagecolor="#ffffff"
     bordercolor="#666666"
     borderopacity="1"
     objecttolerance="10"
     gridtolerance="10"
     guidetolerance="10"
     inkscape:pageopacity="0"
     inkscape:pageshadow="2"
     inkscape:window-width="1167"
     inkscape:window-height="628"
     id="namedview4"
     showgrid="false"
     inkscape:zoom="0.4627444"
     inkscape:cx="256.88908"
     inkscape:cy="423.10445"
     inkscape:window-x="0"
     inkscape:window-y="0"
     inkscape:window-maximized="0"
     inkscape:current-layer="svg2"
     fit-margin-top="0"
     fit-margin-left="0"
     fit-margin-right="0"
     fit-margin-bottom="0" />
  <g
     id="g4932"
     transform="matrix(3.0891424,0,0,3.0891424,-1092.3109,-1249.8963)">
    <path
       sodipodi:nodetypes="ccccc"
       style="fill:#0961a8;fill-opacity:1"
       d="m 506.20291,468.21414 c 7.34204,-9.05966 0,0 7.34204,-9.05966 9.05476,7.25015 0,0 9.05476,7.25015 -7.2534,9.23225 0,0 -7.2534,9.23225 -9.1434,-7.42274 0,0 -9.1434,-7.42274 z"
       id="path4166"
       inkscape:connector-curvature="0" />
    <path
       inkscape:connector-curvature="0"
       id="path4136"
       d="m 431.97523,559.82709 c 7.34204,-9.05966 0,0 7.34204,-9.05966 9.05476,7.25016 0,0 9.05476,7.25016 -7.2534,9.23226 0,0 -7.2534,9.23226 -9.1434,-7.42275 0,0 -9.1434,-7.42275 z"
       style="fill:#093784;fill-opacity:1"
       sodipodi:nodetypes="ccccc" />
    <path
       sodipodi:nodetypes="sssssssscss"
       style="fill:#02a1c8;fill-opacity:1"
       d="m 466.62602,549.1881 c -2.8841,-0.40663 -7.473,-2.07505 -10.27874,-3.7371 -3.31202,-1.96196 -7.70652,-6.33269 -9.61592,-9.56391 -4.53721,-7.67817 -5.32074,-16.49081 -2.21647,-24.92917 2.24059,-6.09063 7.5271,-11.89657 13.56113,-14.89362 4.48076,-2.22555 7.91703,-3.01846 13.05,-3.01124 10.89168,0.0153 20.74145,6.39752 25.38529,16.4485 1.94,4.19887 2.35858,6.31205 2.34439,11.83553 -0.0116,4.50292 -0.0857,5.1872 -0.82024,7.57624 -1.62796,5.29445 -3.96537,9.07858 -7.94051,12.85523 -6.25467,5.94235 -14.79538,8.64244 -23.46893,7.41954 z"
       id="path4170"
       inkscape:connector-curvature="0" />
  </g>
  <path
     style="fill:#4e4e4e;fill-opacity:1"
     d="m 340.95458,715.66556 c 0,-3.29459 2.49372,-6.55879 15.75677,-20.625 l 15.75677,-16.71095 -17.09372,0 c -17.01182,0 -17.09178,-0.0135 -16.69426,-2.8125 0.39344,-2.7703 0.70822,-2.81768 20.97645,-3.15724 11.31737,-0.1896 21.2619,-0.0819 22.09898,0.2393 3.39838,1.30409 -0.83494,7.65096 -15.18048,22.75961 -8.24752,8.68627 -15.20556,16.35084 -15.4623,17.03239 -0.29855,0.79254 5.10798,1.07234 15,0.7763 14.94725,-0.44731 15.47941,-0.37439 15.84283,2.17103 0.32375,2.26772 -0.43905,2.7456 -5.48698,3.4375 -3.22463,0.44198 -12.53449,0.80361 -20.68852,0.80361 l -14.82554,0 z m -24.09087,0.47655 c -0.26863,-0.51563 0.78477,-10.78125 2.34088,-22.8125 1.55612,-12.03125 2.8677,-22.29688 2.91464,-22.8125 0.10913,-1.19929 4.01465,-1.1828 5.91291,0.025 1.09026,0.69367 0.85744,5.91117 -0.93346,20.91836 -3.08194,25.82586 -3.02772,25.61914 -6.71915,25.61914 -1.66508,0 -3.2472,-0.42188 -3.51582,-0.9375 z m 96.98307,-6.18505 c -12.74744,-16.50383 -26.69083,-36.78751 -26.02689,-37.86176 0.43023,-0.69613 2.29591,-1.24434 4.14597,-1.21825 2.49607,0.0352 4.27118,1.35841 6.88178,5.12985 3.92413,5.66901 2.59451,5.54467 22.9266,2.14407 l 7.69468,-1.28696 2.31332,-6.4547 c 1.94048,-5.41435 2.86609,-6.51845 5.74284,-6.85023 2.20205,-0.25396 3.4295,0.19312 3.4295,1.24914 0,1.26 -14.82995,47.29438 -15.48344,48.06286 -0.0779,0.0916 -1.89927,0.54268 -4.04759,1.00245 -3.47858,0.7445 -4.3077,0.31593 -7.57677,-3.91647 z M 426.8725,683.8822 c -0.56661,-0.46733 -18.5581,2.92092 -19.26532,3.62815 -0.39374,0.39373 2.29805,4.78145 5.98175,9.75049 l 6.69764,9.03461 3.43942,-11.08583 c 1.89169,-6.09721 3.30761,-11.19455 3.14651,-11.32742 z m -153.18762,25.67204 c -10.68466,-2.22287 -17.46695,-8.46234 -20.18969,-18.57383 -2.82186,-10.47959 2.94318,-23.35477 12.72159,-28.41139 6.13886,-3.17452 17.31737,-2.60542 25.27245,1.28663 10.66101,5.21595 15.25266,13.46604 13.76894,24.73949 -2.04228,15.51737 -15.33034,24.33831 -31.57329,20.9591 z m 13.47485,-7.78713 c 13.11126,-6.72311 13.58191,-26.60155 0.77374,-32.67942 -5.54992,-2.6336 -13.78313,-2.55362 -18.46749,0.17942 -9.65379,5.63239 -11.39105,23.25426 -2.98066,30.23426 2.22302,1.84495 10.40137,4.9416 13.2669,5.02338 1.05745,0.0301 4.39082,-1.21076 7.40751,-2.75764 z m 178.66364,-1.97409 c -0.68419,-1.83612 -4.30956,-11.33098 -8.05639,-21.09968 -3.74683,-9.76871 -6.8124,-18.25244 -6.8124,-18.85278 0,-0.60033 2.03194,-1.71511 4.51541,-2.47731 4.4525,-1.36652 4.77629,-1.21135 23.23785,11.13575 10.29735,6.88686 18.9423,12.30172 19.211,12.03301 0.2687,-0.2687 -2.38393,-7.9473 -5.89476,-17.06356 -3.60714,-9.36635 -5.90735,-17.03274 -5.28891,-17.62747 0.60192,-0.57883 2.17292,-1.24007 3.49111,-1.46941 2.03213,-0.35354 3.59082,2.62529 10.24703,19.58304 4.31767,11 7.87978,20.87137 7.9158,21.93639 0.0371,1.09855 -1.77379,2.60147 -4.18537,3.47351 -4.18422,1.51304 -4.51227,1.36325 -20.9375,-9.5597 -9.17766,-6.10325 -17.95177,-11.76396 -19.49801,-12.57937 l -2.81136,-1.48257 2.60381,6.60588 c 11.10519,28.17394 11.22641,28.76394 6.18109,30.08332 -2.07435,0.54245 -2.95353,-0.0496 -3.9184,-2.63905 z m -243.26273,-7.1154 c -4.54134,-1.91046 -4.0487,-0.45156 -8.98793,-26.61667 -1.98758,-10.52901 -3.93652,-19.4664 -4.33098,-19.86086 -0.39446,-0.39445 -1.23407,0.62643 -1.86581,2.26866 -3.45728,8.9874 -13.93395,29.86086 -14.98758,29.86086 -2.56557,0 -5.18376,-1.57926 -5.18376,-3.1268 0,-2.39481 18.56941,-41.2596 19.6749,-41.17849 3.53185,0.25914 7.8327,2.37935 8.35146,4.11705 0.33879,1.13479 2.36695,11.61813 4.50705,23.29631 2.14009,11.67821 4.00829,21.35029 4.15154,21.49356 0.14326,0.14324 3.70914,-7.16164 7.92417,-16.23309 4.21505,-9.07144 8.42884,-16.65043 9.36398,-16.84217 0.93514,-0.19175 2.62401,0.37075 3.75304,1.25 1.85358,1.4435 1.12346,3.56033 -7.52418,21.8145 -5.26732,11.11873 -9.85821,20.49307 -10.20196,20.83187 -0.34375,0.33878 -2.43353,-0.14484 -4.64394,-1.07473 z m 327.11428,-40.91051 c -11.00302,-5.56642 -17.15589,-18.65266 -13.69735,-29.13215 0.8408,-2.54766 3.53185,-6.84934 5.98011,-9.55925 13.06647,-14.46304 32.02042,-13.86264 41.6485,1.31928 3.91468,6.17278 4.85815,15.43047 2.27174,22.29075 -3.19304,8.46926 -16.95752,17.85608 -26.22098,17.88166 -2.43245,0.006 -6.92436,-1.25342 -9.98202,-2.80029 z m 20.04916,-7.00201 c 6.41818,-3.41063 9.9805,-9.33507 9.9805,-16.59839 0,-5.40666 -0.55961,-6.62725 -5.31284,-11.58799 -8.53776,-8.9105 -17.16048,-9.24164 -25.83262,-0.99204 -6.70208,6.37554 -7.82514,12.44688 -3.7297,20.16312 5.53858,10.4353 15.46075,14.02848 24.89466,9.0153 z m -422.44991,5.12221 -2.70736,-2.19229 3.91847,-25.61562 c 2.15516,-14.0886 4.11644,-25.81359 4.3584,-26.05555 0.24195,-0.24197 1.8853,0.59973 3.65189,1.87042 2.83057,2.03601 3.11657,2.90403 2.40866,7.31034 -0.44181,2.75 -0.86435,5.77147 -0.93897,6.71439 -0.0746,0.94291 4.85093,5.3958 10.94568,9.8953 l 11.08135,8.18092 5.39557,-2.94745 c 4.57991,-2.50187 5.88088,-2.7263 8.60613,-1.4846 1.76583,0.80457 3.21059,2.03444 3.21059,2.73305 0,1.21064 -43.75184,23.78339 -46.09836,23.78339 -0.61858,0 -2.34299,-0.98654 -3.83205,-2.1923 z m 16.57993,-11.67768 9.77093,-5.11997 -7.27273,-5.26368 c -3.99999,-2.89502 -7.92474,-5.65516 -8.72167,-6.13362 -1.00128,-0.60116 -1.89894,1.93117 -2.90536,8.19615 -0.80103,4.98636 -1.73378,10.05047 -2.07278,11.2536 -0.87511,3.10574 0.2309,2.81619 11.20161,-2.93248 z m -53.33865,-19.24772 c -1.13348,-1.13348 -2.06934,-2.72381 -2.07969,-3.53409 -0.0104,-0.81026 6.31777,-7.48365 14.0625,-14.82975 l 14.08132,-13.35652 -9.27389,-9.38568 c -7.94372,-8.03946 -9.04233,-9.6647 -7.65945,-11.33097 2.22233,-2.67774 4.09881,-2.43863 6.80552,0.86721 1.26652,1.54687 6.31341,6.91814 11.21529,11.93615 l 8.91253,9.12365 -8.125,7.55675 c -4.46875,4.1562 -12.11949,11.48465 -17.00163,16.28542 -8.24615,8.10873 -9.02301,8.58233 -10.9375,6.66783 z m 493.13488,0.22857 c -1.03822,-1.25098 0.10225,-3.24896 4.81606,-8.4375 3.39701,-3.73911 6.1903,-7.15077 6.2073,-7.5815 0.017,-0.43071 -6.45697,-6.83405 -14.38658,-14.22963 -13.78272,-12.85453 -14.32452,-13.54924 -12.30627,-15.77939 2.97022,-3.28204 4.38753,-2.95344 9.29103,2.1541 2.36924,2.46781 8.61947,8.39074 13.8894,13.16205 l 9.5817,8.6751 6.58401,-6.96162 c 6.54452,-6.91988 6.59874,-6.94689 9.03982,-4.50581 2.4411,2.44109 2.36334,2.55383 -12.96667,18.79958 -8.48236,8.98906 -16.09005,16.34375 -16.90596,16.34375 -0.81592,0 -2.09564,-0.73761 -2.84384,-1.63913 z M 68.922668,571.14211 c -4.832586,-6.70313 -9.2133,-12.91526 -9.734918,-13.80475 -0.924756,-1.57695 1.16469,-5.25775 2.984612,-5.25775 0.501421,0 4.229421,4.76054 8.284444,10.57898 4.055024,5.81844 7.832176,10.59969 8.393673,10.625 1.520446,0.0685 9.604097,-6.32783 9.604097,-7.59944 0,-1.2401 -7.906149,-12.77415 -11.656536,-17.00539 -2.028505,-2.28859 -2.181904,-3.11143 -0.873875,-4.6875 0.872587,-1.05141 2.220772,-1.89157 2.995967,-1.86704 0.775194,0.0245 4.646306,4.54299 8.602473,10.04101 7.844764,10.90217 7.551115,10.81603 15.288755,4.48419 l 3.73178,-3.05377 -3.52396,-4.82053 c -1.93819,-2.65127 -5.541575,-7.79821 -8.007529,-11.43762 -4.18118,-6.17087 -4.343324,-6.75735 -2.404242,-8.69644 2.468177,-2.46818 1.570293,-3.36778 13.872331,13.89887 5.32355,7.47194 9.21133,13.98167 8.63951,14.46608 -1.27054,1.07634 -16.879521,12.562 -27.852278,20.49475 -4.434431,3.20586 -8.399019,5.82885 -8.810192,5.82885 -0.411175,0 -4.701524,-5.48438 -9.534112,-12.1875 z m 566.928102,-5.8102 c -15.61213,-10.44014 -18.64619,-14.04601 -18.64619,-22.16029 0,-14.2845 12.4893,-26.52925 24.71896,-24.23496 2.50581,0.4701 9.92228,4.27751 16.48103,8.46094 15.90967,10.14777 15.66566,9.89707 12.9204,13.27461 l -2.24539,2.76255 -13.75,-8.7748 c -16.19642,-10.33604 -19.47136,-10.92939 -26.0546,-4.7206 -4.88052,4.60292 -6.70836,10.89197 -4.70051,16.17304 0.88076,2.31657 5.6316,6.1902 15.08294,12.29795 7.58843,4.9039 13.79717,9.17886 13.79717,9.4999 0,1.7329 -2.79988,5.41936 -4.11603,5.41936 -0.84043,0 -6.90993,-3.59896 -13.48778,-7.9977 z m 40.32203,-44.34097 c -1.31443,-0.83335 -0.86016,-2.80728 2.19857,-9.55314 2.12042,-4.67652 3.70972,-8.63319 3.53176,-8.79263 -0.67147,-0.60159 -21.86896,-10.23357 -28.76105,-13.06882 -7.45922,-3.06855 -8.29159,-4.25899 -5.57526,-7.97379 1.72815,-2.36338 0.65855,-2.73875 30.9728,10.86985 l 6.96004,3.12449 3.56225,-8.32115 c 1.95923,-4.57663 3.7067,-8.51313 3.88326,-8.74778 0.77314,-1.02751 5.50941,1.37245 5.50941,2.79175 0,0.8644 -3.14717,8.56086 -6.99374,17.10326 -3.84655,8.54239 -7.7916,17.35975 -8.76677,19.59413 -1.79279,4.10775 -3.50279,4.88754 -6.52126,2.97382 z M 27.777841,498.54192 c -8.315103,-21.47424 -6.443095,-31.44073 7.180694,-38.22975 10.761728,-5.3628 21.302158,-3.81454 28.185312,4.14009 2.631058,3.04061 10.756838,20.86416 12.28152,26.93899 0.558567,2.2255 -0.07155,2.97213 -3.456346,4.09554 -2.276695,0.75562 -10.045695,3.71102 -17.264445,6.56756 -7.21875,2.85653 -15.177309,5.95446 -17.685685,6.88428 l -4.560685,1.69059 z m 24.126715,-3.5333 c 17.568314,-6.6094 16.994406,-5.6099 10.772783,-18.76134 -3.288739,-6.95182 -9.114548,-11.67702 -14.370305,-11.65546 -4.367189,0.0179 -15.689258,5.63008 -17.253054,8.55205 -2.123526,3.96785 -1.612668,11.3832 1.369107,19.87324 1.509099,4.29687 3.02844,7.8125 3.376313,7.8125 0.347872,0 7.595192,-2.61945 16.105156,-5.82099 z M 679.70458,460.24747 c -19.10875,-6.06866 -20.625,-6.77049 -20.625,-9.54653 0,-2.64277 0.51624,-2.96428 4.375,-2.72477 4.1553,0.25794 39.60735,10.79413 40.99751,12.18428 0.88735,0.88736 -1.94036,6.95622 -3.15821,6.7782 -0.53036,-0.0775 -10.24555,-3.08856 -21.5893,-6.69118 z M 10.585678,447.39211 c -0.363187,-1.89063 -0.515302,-3.58534 -0.338032,-3.76602 0.177269,-0.18069 9.263084,-2.57641 20.190701,-5.32383 10.927617,-2.74741 20.857469,-5.30922 22.06634,-5.6929 1.574424,-0.4997 2.562751,0.2619 3.483891,2.68469 0.707269,1.86025 1.07979,3.58843 0.827824,3.8404 -0.342274,0.34227 -44.401892,11.69516 -45.387957,11.69516 -0.100334,0 -0.479579,-1.54688 -0.842767,-3.4375 z m 694.620512,-0.33286 c -2.53465,-0.97503 -2.56724,-1.27717 -0.96355,-8.9319 0.91291,-4.3575 1.67157,-8.5065 1.68589,-9.21998 0.0144,-0.71349 -8.6927,-2.9152 -19.34895,-4.89269 l -19.375,-3.59542 0,-3.54483 c 0,-4.40441 0.0142,-4.40471 20.67792,-0.42663 8.90839,1.71501 17.09137,3.12126 18.18439,3.125 1.47958,0.005 2.38681,-2.22867 3.55101,-8.74319 1.42599,-7.97934 1.82897,-8.75 4.5752,-8.75 1.97438,0 3.01148,0.71567 3.01148,2.07815 0,3.4531 -7.71596,42.23606 -8.57559,43.10375 -0.43967,0.4438 -1.97993,0.35277 -3.4228,-0.20226 z M 23.804532,388.59805 C 3.24376,378.8194 0.95247541,377.41565 0.23736237,374.15976 c -0.51077774,-2.32555 -0.19109887,-4.1572 0.90004373,-5.15695 3.035472,-2.78119 44.6278739,-25.44583 45.3574249,-24.71628 0.39036,0.39037 0.709745,2.26839 0.709745,4.17339 0,2.88063 -1.078033,4.0504 -6.40436,6.94935 l -6.404359,3.48569 0.770473,8.15482 c 0.423761,4.48516 0.774472,10.57663 0.77936,13.5366 0.0087,5.27599 0.131737,5.43283 6.258886,7.97915 5.748047,2.38879 6.25,2.93538 6.25,6.80574 0,2.31459 -0.421875,4.17463 -0.9375,4.13344 -0.515625,-0.0412 -11.18627,-4.9492 -23.712544,-10.90666 z m 5.900044,-10.71898 c 0,-2.31029 -0.353956,-6.78292 -0.786569,-9.93919 l -0.78657,-5.73863 -6.114904,3.09865 c -3.363196,1.70426 -7.891833,4.17927 -10.063636,5.50002 l -3.9487339,2.40136 9.2877069,4.33644 c 11.780597,5.50035 12.412706,5.51774 12.412706,0.34135 z m 649.275394,6.8437 c -5.29237,-3.22727 -7.4055,-9.00019 -7.37326,-20.14316 0.0374,-12.90303 3.74793,-19.24621 12.78537,-21.85623 2.53115,-0.73098 2.8125,-0.37971 2.8125,3.51148 0,3.51182 -0.55886,4.464 -2.97615,5.0707 -3.65821,0.91815 -7.02385,7.57819 -7.02385,13.89905 0,5.95201 3.26411,12.80231 6.60552,13.86284 3.87542,1.23001 6.59661,-2.97924 8.32537,-12.87799 1.98211,-11.34951 4.78601,-18.87038 7.59576,-20.37411 4.23464,-2.26632 10.81176,-1.42067 14.75464,1.89703 9.027,7.59573 7.64803,31.10758 -2.12074,36.1592 -5.31994,2.75106 -6.41055,2.47064 -6.41055,-1.64821 0,-2.4317 0.98146,-4.24932 3.01345,-5.58072 8.00523,-5.24523 6.48865,-24.56304 -1.92836,-24.56304 -3.23959,0 -5.54875,4.38136 -7.24685,13.75 -2.19093,12.08762 -3.67704,15.94175 -7.2223,18.73045 -3.99981,3.14626 -8.60743,3.20142 -13.59055,0.16271 z M 32.927701,334.73838 c -1.707243,-2.76237 0.694997,-7.3799 4.204513,-8.0818 4.496551,-0.89931 7.572362,-7.22161 7.572362,-15.56491 0,-7.9859 -3.047179,-12.27321 -7.863884,-11.06428 -2.895848,0.72679 -3.734291,2.27839 -7.0668,13.0776 C 24.824,329.14541 20.656882,333.17646 11.6078,330.67788 5.0670423,328.8719 2.2079651,323.57902 2.2367012,313.32961 2.2724661,300.5732 6.7220169,292.91272 15.642076,290.25053 c 2.53638,-0.75698 2.8125,-0.41491 2.8125,3.48433 0,3.56104 -0.547228,4.46108 -3.102264,5.10235 -4.152986,1.04234 -6.8977359,6.74892 -6.8977359,14.34104 0,6.95253 2.1662389,10.15136 6.8744749,10.15136 3.072642,0 4.274528,-2.38529 9.952759,-19.75251 3.625166,-11.0878 10.111896,-14.49794 19.053709,-10.01673 9.437931,4.72985 8.657628,32.65514 -1.0887,38.96214 -4.061172,2.62805 -9.361018,3.76611 -10.319118,2.21587 z m 638.026879,-7.47431 0,-3.56552 19.0625,-1.5004 c 10.48437,-0.82522 20.81739,-1.80084 22.96224,-2.16805 3.43632,-0.58832 4.00057,-0.26587 4.74833,2.71343 0.46673,1.85959 0.54778,3.6819 0.1801,4.04958 -0.71638,0.71638 -34.46884,3.89845 -42.26567,3.98466 -4.33323,0.0479 -4.6875,-0.21764 -4.6875,-3.5137 z m 11.92916,-47.91077 c -0.30718,-0.90678 -1.78366,-5.86744 -3.28106,-11.02369 -1.49739,-5.15625 -3.0861,-9.78344 -3.53046,-10.28264 -0.44435,-0.49921 -4.44949,0.19963 -8.90028,1.55295 -4.4508,1.35333 -8.41151,2.46489 -8.80159,2.47014 -0.96433,0.013 -5.26341,-13.80949 -4.52476,-14.54813 0.7793,-0.7793 48.80919,-15.40878 49.2246,-14.99338 0.60653,0.60653 11.63439,37.4606 11.63439,38.88105 0,1.32235 -6.71641,4.42001 -9.58358,4.42001 -0.7046,0 -2.5075,-4.22081 -4.00643,-9.37959 -4.62502,-15.91745 -4.45544,-15.64796 -9.02194,-14.3383 -2.18768,0.62741 -4.17126,1.33443 -4.40798,1.57115 -0.23672,0.23673 0.95623,4.8947 2.651,10.35108 3.80813,12.26031 3.84215,13.91931 0.30643,14.93561 -1.54688,0.44462 -3.79965,1.08382 -5.00616,1.42042 -1.2065,0.3366 -2.44499,-0.12991 -2.75218,-1.03668 z M 10.596523,272.4636 c -0.9475578,-1.60968 13.175088,-44.13603 14.650172,-44.11485 0.733085,0.01 2.160587,0.5426 3.17223,1.18237 1.591721,1.00663 1.468753,2.30309 -0.913392,9.62998 -1.514006,4.6567 -2.341713,8.84585 -1.839348,9.30922 0.502365,0.46338 8.788391,3.4138 18.413391,6.55649 16.90182,5.51868 17.491245,5.82753 17.243863,9.03536 -0.140875,1.82676 -0.463111,3.52835 -0.716078,3.78131 -0.252966,0.25298 -7.895889,-2.03408 -16.984271,-5.08234 -22.970608,-7.70441 -21.29752,-7.82847 -24.525253,1.81847 -2.061857,6.1624 -3.345197,8.21775 -5.312939,8.50899 -1.426932,0.21118 -2.861701,-0.07 -3.188375,-0.625 z M 645.99159,230.51711 c -2.06995,-3.60938 -3.76882,-7.0719 -3.77528,-7.69451 -0.006,-0.6226 1.41135,-2.99777 3.15066,-5.27812 l 3.16239,-4.14609 -2.95042,-4.72189 c -1.62273,-2.59704 -4.81167,-8.23752 -7.08655,-12.53439 l -4.13612,-7.8125 -6.05479,0 c -6.02587,0 -6.07021,-0.0304 -9.28489,-6.37429 -1.77655,-3.50586 -2.88107,-6.72332 -2.45448,-7.1499 0.42658,-0.42659 13.54252,-0.99524 29.14653,-1.26367 l 28.37094,-0.48808 4.31616,8.0948 4.31615,8.09481 -15.56615,23.85031 c -8.56138,13.11767 -15.97666,23.88085 -16.47837,23.91816 -0.50173,0.0374 -2.60581,-2.88526 -4.67578,-6.49464 z m 15.3469,-35.17671 c 3.22635,-4.39407 5.86609,-8.23755 5.86609,-8.5411 0,-0.30354 -1.26563,-0.41153 -2.8125,-0.23995 -1.54688,0.17156 -6.33956,0.3588 -10.6504,0.4161 l -7.83791,0.10412 2.70607,5.3125 c 2.61532,5.13431 6.129,10.9375 6.62242,10.9375 0.13208,0 2.87988,-3.59514 6.10623,-7.98921 z M 49.776475,224.64395 c -10.616705,-5.29812 -19.46052,-10.15189 -19.65292,-10.78614 -0.1924,-0.63426 2.868995,-7.31324 6.803101,-14.84218 8.410118,-16.09496 12.224591,-19.3876 19.629215,-16.94385 4.934717,1.6286 8.148705,5.42685 8.148705,9.63003 0,2.47619 0.371601,2.67464 3.080019,1.6449 2.191159,-0.83308 5.643756,-0.49794 11.963711,1.16132 4.886033,1.28278 9.170598,2.61924 9.521258,2.9699 0.35066,0.35065 -0.02596,1.87737 -0.836932,3.39268 -1.293,2.416 -2.113236,2.64696 -6.663775,1.87644 -13.102193,-2.21853 -13.408045,-2.22005 -15.774495,-0.0785 -1.964587,1.77798 -8.789786,14.43826 -8.789786,16.30451 0,0.31631 3.9375,2.55801 8.75,4.98155 4.8125,2.42354 8.75,4.71759 8.75,5.09789 0,1.88276 -2.77002,5.50896 -4.10648,5.37575 -0.835186,-0.0832 -10.204915,-4.48618 -20.821621,-9.7843 z m 5.92562,-17.76998 c 2.267386,-4.92536 3.954886,-10.1096 3.75,-11.52051 -0.525022,-3.61549 -6.546129,-6.82754 -9.411453,-5.02068 -1.860866,1.17345 -12.067971,19.28084 -11.246167,19.95068 1.255253,1.02314 10.549766,5.44731 11.535101,5.49069 0.6875,0.0303 3.105134,-3.97481 5.372519,-8.90018 z m 30.10882,-28.95242 c -18.3798,-6.83854 -23.096924,-26.0847 -10.211354,-41.66297 11.729359,-14.18042 33.254389,-11.68691 41.726669,4.83373 3.73891,7.29075 3.15564,15.42736 -1.68415,23.49393 -7.27577,12.12662 -18.997039,17.36633 -29.831165,13.33531 z m 14.232235,-6.98304 c 4.86739,-1.85057 10.74863,-8.61216 12.20937,-14.03695 1.18782,-4.4112 0.99489,-5.78009 -1.53199,-10.87004 -3.83618,-7.72729 -9.55971,-11.45191 -17.597867,-11.45191 -5.519112,0 -6.738633,0.52642 -10.930597,4.71839 -2.604609,2.60461 -5.422511,7.06853 -6.290128,9.96438 -1.439875,4.80587 -1.317505,5.74 1.458623,11.13454 4.596346,8.93156 14.640095,13.59934 22.682589,10.54159 z m 504.06253,-7.9214 c -1.93168,-2.23438 -4.85236,-5.51539 -6.4904,-7.29115 l -2.97824,-3.22865 4.40909,-16.77135 c 2.425,-9.22424 4.78774,-18.1776 5.25054,-19.89635 0.78892,-2.92991 0.69136,-3.00858 -1.56283,-1.26013 -1.32234,1.02568 -5.77926,5.06144 -9.90426,8.96838 -4.125,3.90693 -8.87648,8.29235 -10.55885,9.7454 l -3.05884,2.6419 -5.05787,-5.05788 -5.05788,-5.05787 4.51428,-4.0524 c 2.48285,-2.22882 10.8291,-9.95865 18.54722,-17.1774 7.71813,-7.218752 14.41619,-13.270446 14.88458,-13.448211 0.46838,-0.177764 3.9309,2.795345 7.69449,6.606912 l 6.84287,6.930119 -5.19495,20.02058 c -2.85722,11.01131 -4.76356,19.8507 -4.23631,19.64309 0.52725,-0.20763 6.20562,-5.29937 12.6186,-11.31499 6.41297,-6.01562 12.06892,-10.9375 12.56877,-10.9375 0.49985,0 2.72646,2.29496 4.94803,5.09991 l 4.03921,5.09993 -2.99667,2.9339 c -9.15059,8.95891 -34.25661,31.86626 -34.92481,31.86626 -0.431,0 -2.3641,-1.82813 -4.29577,-4.0625 z M 133.37157,132.37488 c -2.23396,-2.56865 -8.61355,-9.6426 -14.17687,-15.71988 -5.56331,-6.07729 -10.55824,-11.83094 -11.09984,-12.78589 -0.94659,-1.66904 4.41137,-7.342948 18.17558,-19.247352 4.67348,-4.041998 8.43414,-4.399121 8.43414,-0.80093 0,1.000825 -3.9375,5.319125 -8.75,9.596223 -4.8125,4.277096 -8.72888,8.116519 -8.70307,8.532049 0.0258,0.41553 1.93681,2.96368 4.24665,5.66254 l 4.19972,4.90704 9.16315,-8.28053 c 8.68615,-7.849463 9.28312,-8.171957 11.46762,-6.195009 2.20667,1.996999 1.91682,2.438009 -6.8292,10.390689 -10.26657,9.33533 -10.22135,8.07906 -0.65587,18.21668 4.9536,5.2499 5.11699,6.90136 0.90575,9.15515 -1.89374,1.0135 -3.0566,0.38796 -6.37776,-3.43078 z m 419.45801,-19.59687 c -5.98855,-5.10752 -6.57001,-3.69716 9.68943,-23.502106 6.35831,-7.744799 12.76652,-15.626041 14.24047,-17.513873 1.47395,-1.887833 3.16145,-3.415637 3.75,-3.395121 0.58855,0.02051 3.51256,2.14903 6.4978,4.73003 l 5.4277,4.692729 -15.89484,19.644969 c -8.74217,10.804732 -16.52838,19.636602 -17.3027,19.626372 -0.77432,-0.0102 -3.65786,-1.93758 -6.40786,-4.283 z M 166.31947,101.76711 C 154.8897,86.569399 144.70458,72.016863 144.70458,70.883682 c 0,-1.077763 3.88509,-3.804074 5.42094,-3.804074 0.3219,0 3.8745,4.565821 7.89467,10.146269 4.02016,5.580448 9.98126,13.762412 13.24689,18.182141 3.26562,4.41973 5.9375,8.370022 5.9375,8.778432 0,0.86351 -4.00228,4.04483 -5.16231,4.10341 -0.43303,0.0219 -3.00829,-2.91338 -5.7228,-6.52275 z m 17.44761,-12.173802 c -4.78105,-2.915065 -5.02976,-4.19444 -1.32048,-6.792528 2.48308,-1.739215 2.96072,-1.722667 5.05786,0.175216 3.29691,2.983657 9.99283,2.402176 16.54327,-1.436634 6.10735,-3.579153 8.15685,-6.372875 8.15685,-11.118841 0,-5.734958 -5.10584,-5.97447 -17.92629,-0.840913 -12.00223,4.80593 -16.19083,4.825181 -20.91986,0.09615 -7.80359,-7.803581 -2.94848,-19.545632 10.71205,-25.907016 8.27947,-3.855558 15.68206,-3.853176 20.16917,0.0065 l 3.4245,2.945622 -3.14721,2.062128 c -2.82037,1.847985 -3.5324,1.86996 -6.85662,0.211619 -9.8064,-4.892075 -26.34782,9.13891 -18.47598,15.67195 1.66439,1.381318 3.90449,1.003908 14.0625,-2.369229 16.58689,-5.50796 21.25224,-5.155755 25.00356,1.887611 4.60437,8.645023 -2.27606,19.760173 -15.82756,25.569026 -7.00362,3.002104 -13.56109,2.945636 -18.65576,-0.16065 z m 45.65384,-32.8262 c -7.96563,-19.126683 -11.42873,-28.391776 -10.8344,-28.986104 0.274,-0.274004 1.90328,-0.840409 3.62062,-1.258679 3.01756,-0.734949 3.40931,-0.03976 11.66366,20.698015 6.7165,16.874134 8.18527,21.684162 6.875,22.514747 -4.08522,2.589667 -5.53887,0.925112 -11.32488,-12.967979 z m 35.02286,1.6244 C 251.56052,54.327527 244.04457,38.214626 248.99083,25.263017 252.87288,15.098028 262.67128,9.1397146 275.6102,9.0760348 c 7.26303,-0.035745 13.18643,3.2399512 13.84807,7.6581072 0.53517,3.573725 -5.17785,4.579858 -8.041,1.416119 -4.27988,-4.729214 -19.24831,-1.936982 -23.31675,4.349538 -4.84211,7.482001 -2.76833,20.48026 4.20343,26.346606 7.44988,6.268659 22.92775,3.059693 25.45887,-5.278282 0.86385,-2.845706 2.15325,-4.110873 4.77688,-4.68712 1.9765,-0.434112 3.8882,-0.494741 4.24822,-0.134729 1.31137,1.311379 -1.12916,8.523734 -3.89368,11.506686 -5.6749,6.123317 -20.96932,10.498445 -28.45046,8.138548 z m 42.7608,-10.116252 c 0,-0.717394 2.76913,-8.170519 6.1536,-16.5625 12.86966,-31.91094109 11.932,-30.147602 16.53125,-31.08824785 2.29526,-0.46943167 4.29505,-0.73167144 4.44396,-0.582755 0.14891,0.14891644 6.44108,10.09022885 13.98258,22.09180585 13.55305,21.568389 13.67542,21.83098 10.56943,22.678732 -4.39075,1.198421 -5.64185,0.447442 -8.98611,-5.39398 l -2.9303,-5.118338 -12.0697,0.84516 c -15.58669,1.091429 -15.65286,1.116344 -17.60422,6.627099 -0.91193,2.575306 -2.21797,5.385501 -2.90232,6.244876 -1.50356,1.888085 -7.18817,2.092236 -7.18817,0.258148 z m 30.71067,-19.725802 5.08567,-0.844846 -5.90712,-9.822168 C 330.4072,6.7641881 330.96497,6.6030522 325.45364,21.245275 l -3.13702,8.334333 5.25647,-0.09265 c 2.89108,-0.05096 7.54504,-0.472835 10.34216,-0.937504 z"
     id="path4912"
     inkscape:connector-curvature="0"
     sodipodi:nodetypes="sscssscsssssscsssccsssscssscssscssscscsssssssssssscscsssscsssscssscsscssssssscscscsscsssssscsssssssscscsscscsssssscsssssscscsssscsssssssssscssssssssscssscsscssssssssssssscssssssscssssscsssssccssssssscsssssssssssscsscsssssssscscsscssssssssssscsssscssscsscsssssssssssssssssssssssssssssssssssscsssssscscscsssssscssscccssssscssccscscsscsscscccscscscscssccssssssscsscssscssssscsssssssssssssssscssssscccsssscscssscssssssssscscssssssssscscscssssssscscsssssssscssssssccssssssssssssssscssssssssscssssscsscss" />
</svg>
